# xmcd
#
# Track frame offsets:
#	150
#	18787
#	36187
#	50637
#	66300
#	81900
#	102375
#	120350
#	136812
#	151200
#	162687
#
# Disc length: 2373 seconds
#
# Revision: 0
# Processed by: cddbd v1.4PL0 Copyright (c) Steve Scherf et al.
# Submitted via: dBpowerAMP V4.0
#
DISCID=8d09430b
DTITLE=鄭伊健 - Together
DYEAR=1999
DGENRE=
TTITLE0=Together
TTITLE1=心信
TTITLE2=呼吸與心跳
TTITLE3=不如一同回家
TTITLE4=值得等
TTITLE5=受了傷的飛鳥
TTITLE6=回憶裡沒有冬季
TTITLE7=懷念著你
TTITLE8=2001 地球漫遊
TTITLE9=愈戰愈勇
TTITLE10=Together 最愛是你 Remix
EXTD=
EXTT0=
EXTT1=
EXTT2=
EXTT3=
EXTT4=
EXTT5=
EXTT6=
EXTT7=
EXTT8=
EXTT9=
EXTT10=
PLAYORDER=
